<svg width="299" height="41" viewBox="0 0 299 41" fill="none" xmlns="http://www.w3.org/2000/svg">
<path d="M31.0791 26.1592C30.8024 29.984 29.3864 32.9951 26.8311 35.1924C24.292 37.3896 20.9391 38.4883 16.7725 38.4883C12.2152 38.4883 8.6263 36.9583 6.00586 33.8984C3.40169 30.8223 2.09961 26.6068 2.09961 21.252V19.0791C2.09961 15.6611 2.70182 12.6501 3.90625 10.0459C5.11068 7.44173 6.8278 5.44792 9.05762 4.06445C11.3037 2.66471 13.9079 1.96484 16.8701 1.96484C20.9717 1.96484 24.2757 3.06348 26.7822 5.26074C29.2887 7.45801 30.7373 10.5423 31.1279 14.5137H23.8037C23.6247 12.2188 22.9818 10.5586 21.875 9.5332C20.7845 8.49154 19.1162 7.9707 16.8701 7.9707C14.4287 7.9707 12.5977 8.84961 11.377 10.6074C10.1725 12.349 9.55404 15.0589 9.52148 18.7373V21.4229C9.52148 25.264 10.0993 28.0716 11.2549 29.8457C12.4268 31.6198 14.266 32.5068 16.7725 32.5068C19.0348 32.5068 20.7194 31.9941 21.8262 30.9688C22.9492 29.9271 23.5921 28.3239 23.7549 26.1592H31.0791ZM42.3096 14.4648C44.1813 12.2188 46.5332 11.0957 49.3652 11.0957C55.0944 11.0957 57.9997 14.4242 58.0811 21.0811V38H51.0254V21.2764C51.0254 19.7627 50.6999 18.6478 50.0488 17.9316C49.3978 17.1992 48.3154 16.833 46.8018 16.833C44.7347 16.833 43.2373 17.6305 42.3096 19.2256V38H35.2539V0.5H42.3096V14.4648ZM75.5615 38.4883C71.6878 38.4883 68.5303 37.3001 66.0889 34.9238C63.6637 32.5475 62.4512 29.3818 62.4512 25.4268V24.7432C62.4512 22.0902 62.9639 19.722 63.9893 17.6387C65.0146 15.5391 66.4632 13.9277 68.335 12.8047C70.223 11.6654 72.3714 11.0957 74.7803 11.0957C78.3936 11.0957 81.2337 12.235 83.3008 14.5137C85.3841 16.7923 86.4258 20.0231 86.4258 24.2061V27.0869H69.6045C69.8324 28.8122 70.516 30.1956 71.6553 31.2373C72.8109 32.279 74.2676 32.7998 76.0254 32.7998C78.7435 32.7998 80.8675 31.8151 82.3975 29.8457L85.8643 33.7275C84.8063 35.2249 83.374 36.3968 81.5674 37.2432C79.7607 38.0732 77.7588 38.4883 75.5615 38.4883ZM74.7559 16.8086C73.3561 16.8086 72.2168 17.2806 71.3379 18.2246C70.4753 19.1686 69.9219 20.5195 69.6777 22.2773H79.4922V21.7158C79.4596 20.1533 79.0365 18.9489 78.2227 18.1025C77.4089 17.2399 76.2533 16.8086 74.7559 16.8086ZM101.44 32.7998C102.743 32.7998 103.8 32.4417 104.614 31.7256C105.428 31.0094 105.851 30.0573 105.884 28.8691H112.5C112.484 30.6595 111.995 32.3034 111.035 33.8008C110.075 35.2819 108.757 36.4375 107.08 37.2676C105.42 38.0814 103.581 38.4883 101.562 38.4883C97.7865 38.4883 94.8079 37.292 92.627 34.8994C90.446 32.4906 89.3555 29.1702 89.3555 24.9385V24.4746C89.3555 20.4056 90.4378 17.1585 92.6025 14.7334C94.7673 12.3083 97.7376 11.0957 101.514 11.0957C104.818 11.0957 107.463 12.0397 109.448 13.9277C111.45 15.7995 112.467 18.2979 112.5 21.4229H105.884C105.851 20.0557 105.428 18.9489 104.614 18.1025C103.8 17.2399 102.726 16.8086 101.392 16.8086C99.7477 16.8086 98.5026 17.4108 97.6562 18.6152C96.8262 19.8034 96.4111 21.7402 96.4111 24.4258V25.1582C96.4111 27.8763 96.8262 29.8294 97.6562 31.0176C98.4863 32.2057 99.7477 32.7998 101.44 32.7998ZM126.123 27.4043L123.584 29.9434V38H116.528V0.5H123.584V21.2764L124.951 19.5186L131.714 11.584H140.186L130.64 22.5947L141.016 38H132.91L126.123 27.4043ZM181.445 8.38574H170.557V38H163.232V8.38574H152.49V2.45312H181.445V8.38574ZM196.387 38C196.061 37.3652 195.825 36.5758 195.679 35.6318C193.97 37.5361 191.748 38.4883 189.014 38.4883C186.426 38.4883 184.277 37.7396 182.568 36.2422C180.876 34.7448 180.029 32.8568 180.029 30.5781C180.029 27.7786 181.063 25.6302 183.13 24.1328C185.213 22.6354 188.216 21.8786 192.139 21.8623H195.386V20.3486C195.386 19.1279 195.068 18.1514 194.434 17.4189C193.815 16.6865 192.83 16.3203 191.479 16.3203C190.291 16.3203 189.355 16.6051 188.672 17.1748C188.005 17.7445 187.671 18.5257 187.671 19.5186H180.615C180.615 17.9886 181.087 16.5726 182.031 15.2705C182.975 13.9684 184.31 12.9512 186.035 12.2188C187.76 11.4701 189.697 11.0957 191.846 11.0957C195.101 11.0957 197.681 11.9176 199.585 13.5615C201.506 15.1891 202.466 17.484 202.466 20.4463V31.8965C202.482 34.403 202.832 36.2992 203.516 37.585V38H196.387ZM190.552 33.0928C191.593 33.0928 192.554 32.8649 193.433 32.4092C194.312 31.9372 194.963 31.3105 195.386 30.5293V25.9883H192.749C189.217 25.9883 187.337 27.209 187.109 29.6504L187.085 30.0654C187.085 30.9443 187.394 31.6686 188.013 32.2383C188.631 32.8079 189.478 33.0928 190.552 33.0928ZM222.192 30.7002C222.192 29.8376 221.761 29.1621 220.898 28.6738C220.052 28.1693 218.685 27.7217 216.797 27.3311C210.514 26.0127 207.373 23.3434 207.373 19.3232C207.373 16.9795 208.341 15.0264 210.278 13.4639C212.231 11.8851 214.779 11.0957 217.92 11.0957C221.273 11.0957 223.95 11.8851 225.952 13.4639C227.97 15.0426 228.979 17.0934 228.979 19.6162H221.924C221.924 18.6071 221.598 17.777 220.947 17.126C220.296 16.4587 219.279 16.125 217.896 16.125C216.707 16.125 215.788 16.3936 215.137 16.9307C214.486 17.4678 214.16 18.1514 214.16 18.9814C214.16 19.7627 214.526 20.3975 215.259 20.8857C216.007 21.3577 217.261 21.7728 219.019 22.1309C220.776 22.4727 222.257 22.8633 223.462 23.3027C227.189 24.6699 229.053 27.0381 229.053 30.4072C229.053 32.8161 228.019 34.7692 225.952 36.2666C223.885 37.7477 221.216 38.4883 217.944 38.4883C215.731 38.4883 213.761 38.0977 212.036 37.3164C210.327 36.5189 208.984 35.4365 208.008 34.0693C207.031 32.6859 206.543 31.1966 206.543 29.6016H213.232C213.298 30.8548 213.761 31.8151 214.624 32.4824C215.487 33.1497 216.642 33.4834 218.091 33.4834C219.442 33.4834 220.459 33.2311 221.143 32.7266C221.842 32.2057 222.192 31.5303 222.192 30.7002ZM243.213 27.4043L240.674 29.9434V38H233.618V0.5H240.674V21.2764L242.041 19.5186L248.804 11.584H257.275L247.729 22.5947L258.105 38H250L243.213 27.4043Z" fill="white"/>
<path d="M295.5 5.625H289.667C289.667 3.07402 287.574 1 285 1C282.426 1 280.333 3.07402 280.333 5.625H274.5C272.568 5.625 271 7.17871 271 9.09375V34.5312C271 36.4463 272.568 38 274.5 38H295.5C297.432 38 299 36.4463 299 34.5312V9.09375C299 7.17871 297.432 5.625 295.5 5.625ZM278 31.6406C277.03 31.6406 276.25 30.8674 276.25 29.9062C276.25 28.9451 277.03 28.1719 278 28.1719C278.97 28.1719 279.75 28.9451 279.75 29.9062C279.75 30.8674 278.97 31.6406 278 31.6406ZM278 24.7031C277.03 24.7031 276.25 23.9299 276.25 22.9688C276.25 22.0076 277.03 21.2344 278 21.2344C278.97 21.2344 279.75 22.0076 279.75 22.9688C279.75 23.9299 278.97 24.7031 278 24.7031ZM278 17.7656C277.03 17.7656 276.25 16.9924 276.25 16.0312C276.25 15.0701 277.03 14.2969 278 14.2969C278.97 14.2969 279.75 15.0701 279.75 16.0312C279.75 16.9924 278.97 17.7656 278 17.7656ZM285 3.89062C285.97 3.89062 286.75 4.66387 286.75 5.625C286.75 6.58613 285.97 7.35938 285 7.35938C284.03 7.35938 283.25 6.58613 283.25 5.625C283.25 4.66387 284.03 3.89062 285 3.89062ZM294.333 30.4844C294.333 30.8023 294.071 31.0625 293.75 31.0625H283.25C282.929 31.0625 282.667 30.8023 282.667 30.4844V29.3281C282.667 29.0102 282.929 28.75 283.25 28.75H293.75C294.071 28.75 294.333 29.0102 294.333 29.3281V30.4844ZM294.333 23.5469C294.333 23.8648 294.071 24.125 293.75 24.125H283.25C282.929 24.125 282.667 23.8648 282.667 23.5469V22.3906C282.667 22.0727 282.929 21.8125 283.25 21.8125H293.75C294.071 21.8125 294.333 22.0727 294.333 22.3906V23.5469ZM294.333 16.6094C294.333 16.9273 294.071 17.1875 293.75 17.1875H283.25C282.929 17.1875 282.667 16.9273 282.667 16.6094V15.4531C282.667 15.1352 282.929 14.875 283.25 14.875H293.75C294.071 14.875 294.333 15.1352 294.333 15.4531V16.6094Z" fill="white"/>
</svg>
