<svg width="219" height="59" viewBox="0 0 219 59" fill="none" xmlns="http://www.w3.org/2000/svg">
<path d="M12.7441 11.4531L21.875 37.2344L30.957 11.4531H40.5762V47H33.2275V37.2832L33.96 20.5107L24.3652 47H19.3359L9.76562 20.5352L10.498 37.2832V47H3.17383V11.4531H12.7441ZM56.3721 37.0146L61.2549 20.584H68.8232L58.2031 51.1016L57.6172 52.4932C56.0384 55.9437 53.4342 57.6689 49.8047 57.6689C48.7793 57.6689 47.7376 57.5143 46.6797 57.2051V51.8584L47.7539 51.8828C49.0885 51.8828 50.0814 51.6794 50.7324 51.2725C51.3997 50.8656 51.9206 50.1901 52.2949 49.2461L53.125 47.0732L43.8721 20.584H51.4648L56.3721 37.0146ZM100.977 47H93.6523L79.3945 23.6113V47H72.0703V11.4531H79.3945L93.6768 34.8906V11.4531H100.977V47ZM160.181 14.0898V20.584H164.697V25.7598H160.181V38.9434C160.181 39.9199 160.368 40.6198 160.742 41.043C161.117 41.4661 161.833 41.6777 162.891 41.6777C163.672 41.6777 164.364 41.6208 164.966 41.5068V46.8535C163.582 47.2767 162.158 47.4883 160.693 47.4883C155.745 47.4883 153.223 44.9899 153.125 39.9932V25.7598H149.268V20.584H153.125V14.0898H160.181ZM180.786 47.4883C176.912 47.4883 173.755 46.3001 171.313 43.9238C168.888 41.5475 167.676 38.3818 167.676 34.4268V33.7432C167.676 31.0902 168.188 28.722 169.214 26.6387C170.239 24.5391 171.688 22.9277 173.56 21.8047C175.448 20.6654 177.596 20.0957 180.005 20.0957C183.618 20.0957 186.458 21.235 188.525 23.5137C190.609 25.7923 191.65 29.0231 191.65 33.2061V36.0869H174.829C175.057 37.8122 175.741 39.1956 176.88 40.2373C178.035 41.279 179.492 41.7998 181.25 41.7998C183.968 41.7998 186.092 40.8151 187.622 38.8457L191.089 42.7275C190.031 44.2249 188.599 45.3968 186.792 46.2432C184.985 47.0732 182.983 47.4883 180.786 47.4883ZM179.98 25.8086C178.581 25.8086 177.441 26.2806 176.562 27.2246C175.7 28.1686 175.146 29.5195 174.902 31.2773H184.717V30.7158C184.684 29.1533 184.261 27.9489 183.447 27.1025C182.633 26.2399 181.478 25.8086 179.98 25.8086ZM209.985 39.7002C209.985 38.8376 209.554 38.1621 208.691 37.6738C207.845 37.1693 206.478 36.7217 204.59 36.3311C198.307 35.0127 195.166 32.3434 195.166 28.3232C195.166 25.9795 196.134 24.0264 198.071 22.4639C200.024 20.8851 202.572 20.0957 205.713 20.0957C209.066 20.0957 211.743 20.8851 213.745 22.4639C215.763 24.0426 216.772 26.0934 216.772 28.6162H209.717C209.717 27.6071 209.391 26.777 208.74 26.126C208.089 25.4587 207.072 25.125 205.688 25.125C204.5 25.125 203.581 25.3936 202.93 25.9307C202.279 26.4678 201.953 27.1514 201.953 27.9814C201.953 28.7627 202.319 29.3975 203.052 29.8857C203.8 30.3577 205.054 30.7728 206.812 31.1309C208.569 31.4727 210.05 31.8633 211.255 32.3027C214.982 33.6699 216.846 36.0381 216.846 39.4072C216.846 41.8161 215.812 43.7692 213.745 45.2666C211.678 46.7477 209.009 47.4883 205.737 47.4883C203.524 47.4883 201.554 47.0977 199.829 46.3164C198.12 45.5189 196.777 44.4365 195.801 43.0693C194.824 41.6859 194.336 40.1966 194.336 38.6016H201.025C201.09 39.8548 201.554 40.8151 202.417 41.4824C203.28 42.1497 204.435 42.4834 205.884 42.4834C207.235 42.4834 208.252 42.2311 208.936 41.7266C209.635 41.2057 209.985 40.5303 209.985 39.7002Z" fill="white"/>
<path d="M143.413 29.7978L126.948 46.2632C124.931 48.2804 122.195 49.4136 119.342 49.4136C116.49 49.4136 113.754 48.2804 111.737 46.2632C109.72 44.2461 108.586 41.5103 108.586 38.6576C108.586 35.8049 109.72 33.0691 111.737 31.052L128.202 14.5866C129.547 13.2418 131.371 12.4863 133.273 12.4863C135.174 12.4863 136.998 13.2418 138.343 14.5866C139.688 15.9313 140.443 17.7552 140.443 19.657C140.443 21.5588 139.688 23.3826 138.343 24.7274L121.86 41.1928C121.187 41.8652 120.275 42.2429 119.324 42.2429C118.374 42.2429 117.462 41.8652 116.789 41.1928C116.117 40.5204 115.739 39.6085 115.739 38.6576C115.739 37.7067 116.117 36.7948 116.789 36.1224L132.001 20.9291" stroke="white" stroke-width="5" stroke-linecap="round" stroke-linejoin="round"/>
</svg>
